#define battery_empty_width 16
#define battery_empty_height 16

static unsigned char battery_empty_bits[] = {
  0x00, 0x00, 0x00, 0x00, 0x00, 0x00, 0x60, 0x00, 0xf8, 0x19, 0x08, 0x19, 
  0x08, 0x19, 0x08, 0x19, 0x08, 0x19, 0x08, 0x01, 0x08, 0x19, 0xf8, 0x19, 
  0x00, 0x00, 0x00, 0x00, 0x00, 0x00, 0x00, 0x00 };
