#define battery_full_width 16
#define battery_full_height 16

static unsigned char battery_full_bits[] = {
  0x00, 0x00, 0x00, 0x00, 0x00, 0x00, 0x80, 0x01, 0xe0, 0x07, 0x20, 0x04, 
  0xa0, 0x05, 0xa0, 0x05, 0xa0, 0x05, 0xa0, 0x05, 0x20, 0x04, 0xe0, 0x07, 
  0x00, 0x00, 0x00, 0x00, 0x00, 0x00, 0x00, 0x00 };
