#define circle_width 12
#define circle_height 12
static unsigned char circle_bits[] = {
   0x00, 0x00, 0xf0, 0x00, 0xf8, 0x01, 0xfc, 0x03, 0xfe, 0x07, 0xfe, 0x07,
   0xfe, 0x07, 0xfe, 0x07, 0xfc, 0x03, 0xf8, 0x01, 0xf0, 0x00, 0x00, 0x00 };
