#define grid_width 12
#define grid_height 13
static unsigned char grid_bits[] = {
   0x00, 0x00, 0x00, 0x00, 0x6c, 0x03, 0x6c, 0x03, 0x00, 0x00, 0x6c, 0x03,
   0x6c, 0x03, 0x00, 0x00, 0x6c, 0x03, 0x6c, 0x03, 0x00, 0x00, 0x00, 0x00,
   0x00, 0x00 };
